# xmcd CD database file
#
# Track frame offsets:
#	151
#	24950
#	51521
#	107617
#	185859
#	242982
#
# Disc length: 3641 seconds
#
# Revision: 0
# Processed by: cddbd v1.5.2PL0 Copyright (c) Steve Scherf et al.
# Submitted via: CDex 1.51
#
DISCID=500e3706
DTITLE=Steve Cohn - Bridge Over The X-Stream
DYEAR=2000
DGENRE=Jazz
TTITLE0=In The Well Of Value
TTITLE1=Don't Sit Down If You Can't Stand Up
TTITLE2=Where My Advantages Can Be Advanced
TTITLE3=Give Me The Bowl Of Oatmeal
TTITLE4=Mommy, Daddy Took The Cake Out
TTITLE5=Don't Stand Up If You Can't Sit Down
EXTD=YEAR: 2000
EXTT0=
EXTT1=
EXTT2=
EXTT3=
EXTT4=
EXTT5=
PLAYORDER=
